Coordinates
version=1
nRows=17
nColumns=24
inDegrees=yes

Units are S.I. units (second, meters, Newtons, ...)
Angles are in degrees.

endheader
time	pelvis_tilt	pelvis_list	pelvis_rotation	pelvis_tx	pelvis_ty	pelvis_tz	hip_flexion_r	hip_adduction_r	hip_rotation_r	knee_angle_r	ankle_angle_r	subtalar_angle_r	mtp_angle_r	hip_flexion_l	hip_adduction_l	hip_rotation_l	knee_angle_l	ankle_angle_l	subtalar_angle_l	mtp_angle_l	lumbar_extension	lumbar_bending	lumbar_rotation
      0.91616667	     -0.72772464	     -1.14299623	     -0.67909880	     -0.17711076	      0.97749769	      0.30714207	    -10.67889530	      4.78144801	     -6.42888611	    -12.70981047	     16.00139280	     -0.61160069	     -0.69506636	     25.47096670	      0.77844001	     -1.88604842	     -9.26367893	     -0.32232347	     -3.91339549	     -2.74410120	     -1.80511138	      4.95992527	      7.87110784
      0.92033333	     -0.80371522	     -1.07247196	     -0.72019032	     -0.17111871	      0.97693693	      0.30678930	    -10.53109753	      4.61937032	     -6.38286593	    -13.58345344	     16.11207508	     -0.59770830	     -0.64999889	     25.38307020	      0.94962954	     -1.67168194	     -9.23641514	     -0.63994385	     -4.17554653	     -2.46193464	     -1.66923066	      4.91186574	      7.92756441
      0.92450000	     -0.87031270	     -0.97959247	     -0.74995057	     -0.16508283	      0.97643804	      0.30643719	    -10.37616674	      4.43585430	     -6.32638300	    -14.48510784	     16.13076851	     -0.65023985	     -0.55886279	     25.29639621	      1.14117769	     -1.48700827	     -9.30152740	     -0.96818618	     -4.37519571	     -2.05914770	     -1.53439921	      4.82030736	      7.94036433
      0.92866667	     -0.90139024	     -0.85826805	     -0.77661515	     -0.15897572	      0.97605451	      0.30613231	    -10.25146988	      4.23121745	     -6.22509999	    -15.40189830	     16.10838108	     -0.80092406	     -0.52362809	     25.17431996	      1.34865630	     -1.37714651	     -9.43971885	     -1.28078520	     -4.39660930	     -1.95074067	     -1.43094848	      4.66543106	      7.91387570
      0.93283333	     -0.98782618	     -0.76724708	     -0.80481828	     -0.15294345	      0.97562404	      0.30576219	     -9.99652737	      4.04427015	     -6.14848007	    -16.44787679	     16.09408734	     -0.86431512	     -0.39851083	     25.10974171	      1.54402889	     -1.09331178	     -9.61580123	     -1.66201997	     -4.78852988	     -1.66082643	     -1.28098607	      4.59258492	      7.93112451
      0.93700000	     -1.03221309	     -0.62354833	     -0.81926791	     -0.14681334	      0.97530450	      0.30542558	     -9.78232109	      3.80867444	     -6.06663833	    -17.49651401	     15.94786298	     -1.02641618	     -0.33663883	     25.01268957	      1.77841335	     -0.94780732	     -9.87286303	     -1.98919777	     -4.89555764	     -1.54232496	     -1.15858009	      4.40935610	      7.90088944
      0.94116667	     -1.12941302	     -0.52977580	     -0.83655637	     -0.14077930	      0.97493749	      0.30501672	     -9.43516447	      3.61146289	     -5.99976819	    -18.67961597	     15.83773906	     -1.08275454	     -0.12154954	     24.96927459	      1.98215804	     -0.61763998	    -10.14998490	     -2.39817320	     -5.40418482	     -1.22309671	     -0.99013255	      4.33788849	      7.89902539
      0.94533333	     -1.19004761	     -0.37756374	     -0.85528149	     -0.13465847	      0.97468366	      0.30464264	     -9.10580399	      3.35008941	     -5.93270876	    -19.89835202	     15.62304083	     -1.19490331	      0.06605909	     24.86960507	      2.22921082	     -0.38349497	    -10.43188030	     -2.77399221	     -5.67938016	     -0.99279636	     -0.84101122	      4.16447247	      7.86145976
      0.94950000	     -1.27090713	     -0.24164276	     -0.85738471	     -0.12857126	      0.97441965	      0.30423918	     -8.70998517	      3.10432764	     -5.88596674	    -21.18402815	     15.32484684	     -1.29897184	      0.29972588	     24.82392432	      2.46617102	     -0.13251527	    -10.80207896	     -3.13198162	     -6.06566474	     -0.75667554	     -0.67979734	      4.00866130	      7.82228583
      0.95366667	     -1.29581761	     -0.06580093	     -0.83710020	     -0.12244717	      0.97423976	      0.30376014	     -8.33905236	      2.78823981	     -5.95841991	    -22.51678950	     14.85837604	     -1.24532221	      4.85899828	     24.72916565	      2.75021845	      0.07746354	    -11.21188559	     -3.50808322	     -6.48927232	      2.98039999	     -0.59323868	      3.81474754	      7.74024393
      0.95783333	     -1.36399628	      0.08346112	     -0.84053419	     -0.11636433	      0.97408431	      0.30336816	     -7.88365569	      2.52844458	     -5.86112521	    -23.90724486	     14.38939415	     -1.49300763	      4.91799078	     24.67012837	      2.99199141	      0.30264388	    -11.61947315	     -3.83015111	     -6.86186363	      2.97216636	     -0.44566179	      3.64239335	      7.71433737
      0.96200000	     -1.43789075	      0.24422755	     -0.82468146	     -0.11031447	      0.97391252	      0.30289986	     -7.36767371	      2.23548974	     -5.84622764	    -25.38545734	     13.88745760	     -1.56717637	      5.07584547	     24.64410791	      3.25684772	      0.54139666	    -12.09402077	     -4.11454173	     -7.35273765	      2.96663807	     -0.30379174	      3.47153409	      7.66046548
      0.96616667	     -1.51442886	      0.41539441	     -0.80500168	     -0.10427097	      0.97375795	      0.30243166	     -6.80529367	      1.92457843	     -5.84519098	    -26.92575328	     13.27627946	     -1.61632574	      5.29175558	     24.62086705	      3.52698603	      0.75189879	    -12.57678640	     -4.35287669	     -7.76859090	      2.96233209	     -0.15690414	      3.27737538	      7.58730162
      0.97033333	     -1.55384620	      0.61308563	     -0.78107839	     -0.09822713	      0.97369067	      0.30193581	     -6.24502575	      1.57037546	     -5.87632199	    -28.51577196	     12.57194935	     -1.62546631	      5.58924812	     24.54899193	      3.82625410	      0.95307592	    -13.05155008	     -4.55949621	     -8.20889413	      2.95418939	     -0.04870834	      3.05206084	      7.50950728
      0.97450000	     -1.57839362	      0.84625624	     -0.75364544	     -0.09216708	      0.97366404	      0.30140353	     -5.66412470	      1.15422021	     -5.95469377	    -30.14460899	     11.67390550	     -1.64800656	     11.13712619	     24.44962568	      4.16191666	      1.13751003	    -13.51413380	     -4.68371475	     -8.59820531	      2.76204316	      0.04185232	      2.79413503	      7.40591861
      0.97866667	     -1.61820891	      1.04868242	     -0.72771415	     -0.08616776	      0.97363736	      0.30092338	     -5.02915758	      0.78862346	     -5.95983950	    -31.82414150	     10.76013837	     -1.76188409	     11.17552817	     24.38696958	      4.45324837	      1.28004771	    -14.01818473	     -4.74270972	     -8.90048477	      2.75714596	      0.14989295	      2.56088400	      7.33179939
      0.98283333	     -1.67645257	      1.27117260	     -0.69063714	     -0.08021964	      0.97359180	      0.30040144	     -4.32957476	      0.38725764	     -5.99224301	    -33.56227441	      9.80561610	     -1.75643104	     11.29471976	     24.35618499	      4.77412895	      1.43248332	    -14.54796860	     -4.78555016	     -9.31814637	      2.73955116	      0.26049002	      2.31023081	      7.23726627
